Coordinates
version=1
nRows=6
nColumns=63
inDegrees=yes

Units are S.I. units (second, meters, Newtons, ...)
If the header above contains a line with 'inDegrees', this indicates whether rotational values are in degrees (yes) or radians (no).

endheader
time	pelvis_tilt	pelvis_list	pelvis_rotation	pelvis_tx	pelvis_ty	pelvis_tz	hip_flexion_r	hip_adduction_r	hip_rotation_r	knee_angle_r	knee_angle_r_beta	ankle_angle_r	subtalar_angle_r	mtp_angle_r	hip_flexion_l	hip_adduction_l	hip_rotation_l	knee_angle_l	knee_angle_l_beta	ankle_angle_l	subtalar_angle_l	mtp_angle_l	L5_S1_Flex_Ext	L5_S1_Lat_Bending	L5_S1_axial_rotation	L4_L5_Flex_Ext	L4_L5_Lat_Bending	L4_L5_axial_rotation	L3_L4_Flex_Ext	L3_L4_Lat_Bending	L3_L4_axial_rotation	L2_L3_Flex_Ext	L2_L3_Lat_Bending	L2_L3_axial_rotation	L1_L2_Flex_Ext	L1_L2_Lat_Bending	L1_L2_axial_rotation	L1_T12_Flex_Ext	L1_T12_Lat_Bending	L1_T12_axial_rotation	Abs_r3	Abs_r2	Abs_r1	Abs_t1	Abs_t2	neck_flexion	neck_bending	neck_rotation	arm_flex_r	arm_add_r	arm_rot_r	elbow_flex_r	pro_sup_r	wrist_flex_r	wrist_dev_r	arm_flex_l	arm_add_l	arm_rot_l	elbow_flex_l	pro_sup_l	wrist_flex_l	wrist_dev_l
4.133333	-5.424452	0.658849	85.252280	0.261138	0.885830	0.696311	0.354504	-2.987735	-2.673810	9.382932	0.163763	32.211733	8.620862	0.000000	-1.154882	2.946957	-2.995109	7.484579	0.130631	28.755040	0.622442	0.000000	0.145037	-0.439020	0.596317	0.269348	-0.583897	0.633587	0.238281	-1.067433	0.633587	0.165762	-1.067433	0.521778	0.134681	-0.895250	0.484508	0.082874	-0.680042	0.447238	1.035983	-4.966283	3.316539	0.000000	0.000000	24.067772	1.352816	-13.631414	59.328594	-14.422602	10.213019	140.073718	89.132888	2.743772	25.745608	63.059388	-16.782087	13.713683	138.394841	89.409459	12.011976	20.359087
4.150000	-5.357875	0.984354	85.373080	0.260680	0.887314	0.697072	0.018452	-2.995386	-3.255962	9.355894	0.163291	32.081784	9.126272	0.000000	-1.425982	2.927461	-3.083143	7.516485	0.131187	28.522959	0.806734	0.000000	0.110917	-0.407740	0.545330	0.205985	-0.542295	0.579413	0.182226	-0.991380	0.579413	0.126767	-0.991380	0.477164	0.102998	-0.831464	0.443080	0.063378	-0.631590	0.408997	0.792272	-4.612441	3.032961	0.000000	0.000000	23.674432	1.263426	-12.382150	61.342945	-13.515483	10.927992	139.548457	89.133648	2.795788	25.903481	64.096517	-16.255695	12.888220	138.023077	89.181652	11.845798	19.103277
4.166667	-5.276622	1.253061	85.535651	0.260093	0.888633	0.697676	-0.280282	-2.985605	-3.840093	9.332180	0.162877	31.939495	9.586777	0.000000	-1.641230	2.895212	-3.130547	7.543333	0.131656	28.332154	0.982600	0.000000	0.079167	-0.370976	0.490032	0.147021	-0.493398	0.520659	0.130063	-0.901992	0.520659	0.090480	-0.901992	0.428778	0.073514	-0.756495	0.398151	0.045236	-0.574642	0.367524	0.565482	-4.196557	2.725410	0.000000	0.000000	23.323927	1.161679	-10.877768	63.095592	-12.445935	11.539243	138.943097	89.131556	3.266867	26.110913	64.761756	-15.688450	11.902727	137.786593	89.099441	11.459794	18.101586
4.183333	-5.190638	1.463440	85.723773	0.259449	0.889753	0.698052	-0.547068	-2.961621	-4.374954	9.293319	0.162199	31.790742	9.952674	0.000000	-1.812561	2.857420	-3.127628	7.552421	0.131815	28.175373	1.133046	0.000000	0.050783	-0.331375	0.434108	0.094310	-0.440728	0.461240	0.083432	-0.805705	0.461240	0.058040	-0.805705	0.379845	0.047157	-0.675740	0.352713	0.029018	-0.513300	0.325581	0.362741	-3.748578	2.414379	0.000000	0.000000	23.028559	1.059666	-9.226468	64.552692	-11.263416	12.049365	138.344292	89.118493	4.071571	26.300704	65.121371	-15.056022	10.778678	137.667533	89.035712	11.132549	17.279061
4.200000	-5.109629	1.614870	85.937416	0.258767	0.890642	0.698158	-0.772311	-2.939139	-4.952778	9.256738	0.161561	31.686881	10.351083	0.000000	-1.941823	2.825567	-2.973602	7.546911	0.131718	28.038174	1.138946	0.000000	0.027208	-0.291549	0.375567	0.050528	-0.387761	0.399040	0.044700	-0.708873	0.399040	0.031096	-0.708873	0.328621	0.025265	-0.594527	0.305148	0.015547	-0.451610	0.281676	0.194343	-3.298064	2.088793	0.000000	0.000000	22.781524	0.983773	-7.533196	65.694571	-10.017630	12.488519	137.828988	89.088124	4.993134	26.409703	65.253886	-14.361723	9.570547	137.720453	88.984749	10.913055	16.834746
4.216667	-5.019895	1.711285	86.137214	0.258147	0.891294	0.698001	-0.962054	-2.887470	-5.356657	9.199616	0.160564	31.583297	10.553019	0.000000	-2.033195	2.767796	-2.967414	7.539598	0.131591	27.988948	1.360840	0.000000	0.009910	-0.249503	0.316072	0.018405	-0.331839	0.335826	0.016282	-0.606642	0.335826	0.011327	-0.606642	0.276563	0.009203	-0.508787	0.256808	0.005663	-0.386481	0.237054	0.070789	-2.822430	1.757896	0.000000	0.000000	22.550620	0.903525	-5.795346	66.568448	-8.723896	12.897912	137.386034	89.033792	6.035223	26.327404	65.199491	-13.685346	8.337699	137.949567	88.946545	10.683587	16.468549
